<svg width="183" height="70" viewBox="0 0 183 70" fill="none" xmlns="http://www.w3.org/2000/svg">
<g clipPath="url(#clip0_5010_6177)">
<path fillRule="evenodd" clipRule="evenodd" d="M4.09292 35.5355L3.34521 34.7811C4.02762 34.0875 4.84123 33.5366 5.73863 33.1607C6.63605 32.7847 7.5993 32.5911 8.57229 32.5911C9.54527 32.5911 10.5085 32.7847 11.4059 33.1607C12.3034 33.5366 13.1169 34.0875 13.7994 34.7811L13.0379 35.5081C12.4543 34.9191 11.7599 34.4515 10.9946 34.1325C10.2292 33.8134 9.4083 33.6492 8.57914 33.6492C7.74998 33.6492 6.92905 33.8134 6.16374 34.1325C5.39844 34.4515 4.70394 34.9191 4.12036 35.5081M6.75448 38.0325L6.06851 37.3465C6.40166 37.003 6.80042 36.7299 7.24112 36.5434C7.68182 36.3568 8.15548 36.2607 8.63403 36.2607C9.11256 36.2607 9.58623 36.3568 10.0269 36.5434C10.4676 36.7299 10.8664 37.003 11.1995 37.3465L10.5136 38.0325C10.0179 37.5437 9.35076 37.268 8.6546 37.2643C8.30913 37.2616 7.96665 37.3283 7.64736 37.4603C7.32808 37.5921 7.03846 37.7868 6.79563 38.0325M8.6546 39.8709L7.32382 38.5676C7.68486 38.2253 8.15761 38.0255 8.6546 38.0051C9.14866 38.0206 9.61882 38.2213 9.97166 38.5676L8.6546 39.8709ZM8.6546 35.5081C9.2341 35.5033 9.80842 35.6178 10.3418 35.8443C10.8752 36.0709 11.3563 36.4047 11.7551 36.8252L12.5852 35.9952C12.0734 35.4662 11.4606 35.0455 10.783 34.7582C10.1054 34.471 9.37688 34.3229 8.64088 34.3229C7.90489 34.3229 7.17641 34.471 6.4988 34.7582C5.82118 35.0455 5.20829 35.4662 4.69657 35.9952L5.51974 36.8321C5.92368 36.4103 6.40943 36.0753 6.94728 35.8477C7.48511 35.62 8.06373 35.5045 8.64775 35.5081" fill="#0E6EB6"/>
<path fillRule="evenodd" clipRule="evenodd" d="M3.6344 40.7761H13.4095C6.39886 58.5084 5.17783 68.9009 12.2913 68.6264C-3.31445 69.5456 -1.29084 54.3858 3.64127 40.7761" fill="#0E6EB6"/>
<path fillRule="evenodd" clipRule="evenodd" d="M12.6201 13.5773C21.5376 -0.951432 35.9978 -2.43312 46.3011 2.85568C57.7293 8.73442 61.2552 22.3372 58.4084 34.3142C55.9047 45.2073 48.7294 55.1607 39.4551 61.5608C33.7783 65.4116 27.3282 67.9752 20.5567 69.0721C25.7483 67.3788 30.3943 64.3312 34.0154 60.2437C36.2628 57.8034 38.2089 55.1019 39.8118 52.1973C45.0732 45.1044 47.5083 38.1556 47.6799 32.1053C48.0228 23.9903 44.4902 15.9371 37.0336 12.2123C30.5445 8.91278 21.8052 9.08426 12.6201 13.5842" fill="#F26329"/>
<path fillRule="evenodd" clipRule="evenodd" d="M5.88355 29.9653C13.1548 15.56 28.1295 14.5516 36.951 20.7871C40.4277 23.2541 42.8705 26.9185 43.8106 31.0765C45.0111 36.3723 44.133 41.86 42.1438 47.0938C40.314 51.9636 37.553 56.4301 34.0151 60.2439C28.9938 65.7933 21.8049 70.0257 14.122 69.9434C11.0515 69.9596 8.03402 69.1442 5.38965 67.5837C9.01841 69.3329 14.6639 68.7156 18.1143 67.3368C23.8216 64.9976 28.4038 60.1479 31.2643 54.7836C34.797 48.212 37.5821 37.6344 31.9503 31.5773C26.8399 25.9524 16.6464 24.0316 5.88355 29.9584" fill="#09A14A"/>
<path d="M176.689 38.2178L178.418 33.2583C178.212 33.2583 177.992 33.2583 177.807 33.2583C177.27 33.2366 176.733 33.3259 176.232 33.5206C175.73 33.7153 175.274 34.0113 174.892 34.3901C174.127 35.1453 173.606 36.1132 173.397 37.1683C173.246 37.6466 173.262 38.162 173.444 38.6293C173.532 38.802 173.668 38.9449 173.837 39.04C174.005 39.1353 174.199 39.1786 174.391 39.1644C175.237 39.1112 176.044 38.7918 176.696 38.2522M182.184 31.0563L178.562 41.2223H175.619L175.955 40.2552C175.07 40.9617 173.986 41.372 172.854 41.4282C172.406 41.4475 171.962 41.34 171.573 41.1179C171.183 40.8958 170.865 40.5683 170.653 40.1729C170.151 39.1782 170.051 38.0291 170.371 36.9625C170.742 35.1553 171.756 33.5441 173.225 32.4282C174.853 31.1978 176.86 30.5742 178.898 30.6653C179.992 30.6538 181.083 30.7712 182.15 31.0152M170.159 30.8848L166.489 41.2223H163.546L167.229 30.8848H170.159ZM168.155 27.99C168.241 27.5569 168.469 27.1648 168.803 26.8773C169.138 26.5898 169.56 26.4236 170.001 26.4055C170.189 26.4003 170.375 26.4393 170.546 26.519C170.717 26.5989 170.866 26.7173 170.982 26.8651C171.101 27.0237 171.182 27.2079 171.218 27.4032C171.254 27.5985 171.244 27.7994 171.187 27.99C171.089 28.4399 170.848 28.8461 170.502 29.1493C170.166 29.4274 169.744 29.5823 169.309 29.5884C169.125 29.5932 168.942 29.5562 168.774 29.4802C168.607 29.4041 168.459 29.2911 168.341 29.1493C168.228 28.9808 168.155 28.7894 168.126 28.5889C168.096 28.3885 168.111 28.1839 168.17 27.99M158.943 38.7872L160.829 33.416C160.587 33.3768 160.341 33.3584 160.096 33.3612C159.129 33.3409 158.187 33.6561 157.427 34.253C156.705 34.8056 156.199 35.5947 156.001 36.4823C155.914 36.7821 155.897 37.0981 155.953 37.4053C156.009 37.7125 156.136 38.0024 156.323 38.2522C156.55 38.4927 156.828 38.6792 157.137 38.7979C157.445 38.9167 157.777 38.9646 158.107 38.9381C158.388 38.9222 158.669 38.8808 158.943 38.8147M166.489 25.6646L161.063 41.1058C159.92 41.3178 158.761 41.4348 157.599 41.4556C155.835 41.4556 154.539 41.0028 153.703 40.0837C152.865 39.1644 152.633 37.9777 152.969 36.4685C153.315 34.842 154.218 33.3868 155.52 32.3528C156.865 31.2297 158.57 30.6304 160.322 30.6653C160.794 30.673 161.267 30.7097 161.735 30.7751L163.54 25.6372L166.489 25.6646ZM146.403 30.8848L145.957 32.0441C147.017 31.2272 148.299 30.7491 149.635 30.6722C149.977 30.6399 150.322 30.7014 150.633 30.85C150.943 30.9986 151.207 31.2287 151.397 31.5159C151.579 31.8764 151.688 32.2693 151.717 32.6718C151.747 33.0744 151.697 33.4788 151.569 33.8619C151.504 34.1758 151.42 34.4851 151.315 34.788L149.058 41.2292H146.129L148.304 35.0556C148.384 34.8825 148.445 34.7006 148.483 34.5136C148.688 33.4915 148.483 32.9908 147.886 32.9908C147.288 32.9908 146.252 33.5053 145.08 34.5822L142.727 41.2429H139.785L143.461 30.8848H146.403ZM142.219 25.6646L136.732 41.2498H133.562L139.05 25.6646H142.219ZM130.009 25.6646L124.521 41.2498H121.606L127.094 25.6646H130.009ZM116.976 38.2453L118.69 33.2857C118.485 33.2857 118.265 33.2857 118.08 33.2857C117.545 33.2642 117.01 33.3538 116.512 33.5485C116.012 33.7433 115.558 34.0392 115.179 34.4175C114.419 35.1548 113.894 36.0998 113.67 37.134C113.51 37.6122 113.532 38.132 113.731 38.5951C113.816 38.7672 113.949 38.9101 114.116 39.0054C114.282 39.1008 114.472 39.1443 114.664 39.1302C115.511 39.0715 116.317 38.7529 116.976 38.2178M122.463 31.022L118.862 41.2223H115.933L116.276 40.2552C115.39 40.9551 114.31 41.3648 113.183 41.4282C112.726 41.4555 112.272 41.3527 111.873 41.1316C111.473 40.9105 111.145 40.5804 110.926 40.1796C110.435 39.1821 110.335 38.0371 110.644 36.9694C111.013 35.1612 112.027 33.5492 113.498 32.4351C115.131 31.2042 117.142 30.5808 119.185 30.6722C120.276 30.6617 121.365 30.7791 122.43 31.022M109.684 28.676L108.82 30.8848H110.98L110.095 33.1485H107.921L106.632 36.5234C106.519 36.7782 106.435 37.0452 106.385 37.3192C106.172 38.2453 106.385 38.6911 106.981 38.6911C107.621 38.5989 108.238 38.3872 108.799 38.0669L108.202 40.8108C107.377 41.2346 106.468 41.4689 105.541 41.4967C105.145 41.5247 104.749 41.4519 104.389 41.2852C104.029 41.1184 103.717 40.8632 103.482 40.5433C103.272 40.1669 103.138 39.7521 103.09 39.3232C103.042 38.8944 103.08 38.4602 103.202 38.0463C103.29 37.7513 103.38 37.4496 103.482 37.1477L105.054 33.1896H103.064L103.929 30.9259H105.932L106.762 28.7377L109.684 28.676ZM102.516 30.8848L98.8525 41.2223H95.9235L99.5728 30.8848H102.516ZM100.492 27.99C100.594 27.5509 100.834 27.1564 101.178 26.8651C101.509 26.5805 101.928 26.4182 102.365 26.4055C102.554 26.3993 102.742 26.4376 102.913 26.5175C103.085 26.5974 103.236 26.7164 103.353 26.8651C103.463 27.0279 103.539 27.2121 103.574 27.4058C103.61 27.5995 103.605 27.7985 103.559 27.99C103.449 28.4355 103.21 28.8387 102.872 29.1493C102.535 29.4214 102.118 29.5755 101.686 29.5884C101.501 29.5975 101.317 29.5625 101.149 29.4861C100.981 29.4098 100.833 29.2942 100.718 29.1493C100.6 28.9834 100.52 28.7934 100.485 28.5929C100.449 28.3924 100.459 28.1864 100.513 27.99M90.9434 43.5135C91.0394 43.0333 90.6484 42.6766 89.784 42.4914L88.5562 42.1965C88.1524 42.2207 87.7568 42.3208 87.39 42.4914C87.1696 42.5511 86.969 42.6683 86.8086 42.831C86.6484 42.9938 86.5342 43.1961 86.4777 43.4175C86.3268 44.1446 86.9716 44.4944 88.4258 44.4944C89.0356 44.5197 89.6454 44.4433 90.23 44.268C90.4004 44.2134 90.5534 44.1148 90.6738 43.9824C90.7941 43.85 90.8777 43.6883 90.9159 43.5135M90.7925 36.6539C91.8557 36.6539 92.5417 35.8993 92.8503 34.4175C92.905 34.2395 92.9229 34.0522 92.9028 33.867C92.8828 33.6819 92.8252 33.5028 92.7338 33.3406C92.6254 33.2034 92.4847 33.0953 92.3243 33.0258C92.1639 32.9563 91.9887 32.9279 91.8145 32.9428C90.7444 32.9428 90.0379 33.6905 89.6812 35.2201C89.4823 36.1599 89.8321 36.6539 90.7651 36.6539M97.8922 30.8848L97.1102 33.1485H95.5394C95.647 33.6966 95.647 34.2605 95.5394 34.8086C95.3004 35.8764 94.6964 36.8274 93.8313 37.4976C92.9039 38.2268 91.7524 38.6122 90.573 38.5882C90.1136 38.5756 89.6541 38.6078 89.201 38.6842C89.0779 38.6962 88.962 38.7483 88.8716 38.8325C88.781 38.9169 88.7208 39.0287 88.7002 39.1507C88.6659 39.2742 88.7002 39.3839 88.8923 39.5211C89.5658 39.7208 90.2538 39.8677 90.9503 39.9602C92.1644 40.1729 93.0082 40.5158 93.406 41.0714C93.6249 41.3613 93.7737 41.6981 93.8404 42.0551C93.907 42.4123 93.8898 42.78 93.7901 43.1294C93.303 45.3656 91.3549 46.5043 87.9525 46.5043C86.7902 46.5911 85.6267 46.3536 84.5913 45.8183C84.2646 45.6367 84.008 45.3509 83.8625 45.0066C83.7171 44.6622 83.6911 44.279 83.7887 43.9182C84.0151 42.9304 84.9891 42.1278 86.7315 41.6065C86.3757 41.4439 86.0875 41.1628 85.9161 40.8112C85.7447 40.4596 85.7007 40.0594 85.7917 39.6789C86.0044 38.7186 86.807 38.0806 88.1995 37.772C87.7295 37.4493 87.3735 36.9862 87.1825 36.449C86.9916 35.9119 86.9754 35.328 87.1363 34.7811C87.4071 33.6769 88.061 32.7046 88.9814 32.0373C89.9504 31.2607 91.1631 30.8525 92.4045 30.8848H97.8922ZM86.2308 30.8848L82.5677 41.2498H79.6386L83.2536 30.8848H86.2308ZM84.1729 27.99C84.2752 27.5513 84.5158 27.157 84.8588 26.8651C85.1873 26.5848 85.6004 26.4229 86.0318 26.4055C86.2205 26.4024 86.4074 26.4423 86.5785 26.5218C86.7496 26.6015 86.9004 26.7187 87.0196 26.8651C87.1351 27.0256 87.2119 27.2107 87.2441 27.4058C87.2763 27.601 87.2628 27.801 87.2048 27.99C87.0967 28.4362 86.8578 28.8399 86.5189 29.1493C86.1805 29.4285 85.757 29.5834 85.3184 29.5884C85.1353 29.5948 84.9531 29.5585 84.7864 29.4822C84.6197 29.4061 84.4731 29.2921 84.3581 29.1493C84.2475 28.98 84.1723 28.7899 84.1369 28.5907C84.1016 28.3914 84.1068 28.1872 84.1523 27.99M71.2355 28.2575L67.6136 38.6431H70.5633C71.2974 38.656 72.0266 38.5224 72.7085 38.2503C73.3905 37.9782 74.0114 37.5731 74.535 37.0585C75.6513 36.0233 76.4122 34.6622 76.7096 33.1691C76.8863 32.5685 76.9267 31.9362 76.8283 31.3178C76.7298 30.6996 76.4948 30.1111 76.1402 29.5952C75.7293 29.1158 75.21 28.7413 74.6255 28.5028C74.0409 28.2641 73.4079 28.1683 72.7789 28.2233L71.2355 28.2575ZM69.0198 25.6646H73.9451C76.4283 25.6646 78.1707 26.3506 79.179 27.7773C80.1874 29.2042 80.4343 31.022 79.9542 33.2652C79.5002 35.4702 78.3567 37.4737 76.6889 38.9861C75.2253 40.4296 73.257 41.2464 71.2012 41.2635H63.5596L69.0198 25.6646Z" fill="black"/>
<path fillRule="evenodd" clipRule="evenodd" d="M64.7955 51.8752H66.4898C67.0458 51.8933 67.5911 51.7189 68.0332 51.3813C68.2159 51.2218 68.3595 51.0227 68.4535 50.7992C68.5474 50.5758 68.589 50.3337 68.5752 50.0917C68.5886 49.8467 68.547 49.6017 68.4532 49.375C68.3593 49.1482 68.2159 48.9454 68.0332 48.7815C67.5942 48.4399 67.0449 48.2716 66.4898 48.3082H64.7955V51.8752ZM64.7955 52.815V56.7798H63.7939V47.3478H66.2703C67.1462 47.3019 68.0131 47.5427 68.7398 48.0338C69.0428 48.281 69.2833 48.5963 69.4418 48.9537C69.6003 49.3113 69.6723 49.7011 69.6522 50.0917C69.6675 50.4737 69.5929 50.8539 69.4344 51.2018C69.276 51.5497 69.0381 51.8556 68.7398 52.0947C68.0225 52.6093 67.152 52.8657 66.2703 52.8219L64.7955 52.815Z" fill="black"/>
<path fillRule="evenodd" clipRule="evenodd" d="M73.6841 55.8674C73.9913 55.8747 74.2966 55.8174 74.5801 55.6992C74.8637 55.5811 75.1193 55.4047 75.3305 55.1815C75.5539 54.9504 75.7294 54.6777 75.8471 54.3787C75.9649 54.0797 76.0223 53.7604 76.0165 53.4391C76.0257 53.1184 75.9697 52.7993 75.8517 52.5009C75.7338 52.2026 75.5565 51.9313 75.3305 51.7037C75.1254 51.4692 74.8722 51.2815 74.5882 51.1536C74.304 51.0259 73.9958 50.9607 73.6841 50.9628C73.3689 50.9559 73.056 51.0187 72.7679 51.1467C72.4797 51.2748 72.2234 51.4649 72.0173 51.7037C71.7922 51.9321 71.6155 52.2034 71.4976 52.5016C71.3799 52.7997 71.3232 53.1186 71.3313 53.4391C71.3209 54.0877 71.5674 54.7141 72.0173 55.1815C72.2296 55.4087 72.4884 55.5876 72.776 55.706C73.0637 55.8244 73.3733 55.8795 73.6841 55.8674ZM73.6841 56.8003C73.2426 56.8186 72.8021 56.7431 72.3918 56.5788C71.9815 56.4144 71.6107 56.165 71.3039 55.8469C70.6984 55.1762 70.3633 54.3049 70.3633 53.4014C70.3633 52.498 70.6984 51.6266 71.3039 50.956C71.9386 50.3338 72.7919 49.9854 73.6807 49.9854C74.5696 49.9854 75.4229 50.3338 76.0576 50.956C76.656 51.63 76.9865 52.5001 76.9865 53.4014C76.9865 54.3027 76.656 55.1729 76.0576 55.8469C75.7525 56.1635 75.3841 56.4121 74.9763 56.5765C74.5683 56.7408 74.1304 56.8171 73.691 56.8003" fill="black"/>
<path fillRule="evenodd" clipRule="evenodd" d="M80.9356 55.0921L82.7876 49.865H83.3981L85.2846 55.0852L87.2602 49.9611H88.1793L85.5315 56.7865H84.9279L83.0758 51.6692L81.2031 56.7865H80.6063L77.9585 49.9611H78.9736L80.9356 55.0921Z" fill="black"/>
<path fillRule="evenodd" clipRule="evenodd" d="M93.7771 52.5747C93.7168 52.2156 93.5658 51.8779 93.3381 51.5938C93.1629 51.3806 92.9398 51.2118 92.6872 51.101C92.4345 50.9901 92.1594 50.9404 91.8838 50.9558C91.6194 50.9651 91.3599 51.0312 91.1232 51.1495C90.8864 51.2679 90.678 51.4357 90.5119 51.6418C90.3015 51.9256 90.1414 52.2435 90.0386 52.5816L93.7771 52.5747ZM89.9014 53.3842C89.8994 53.7038 89.9622 54.0206 90.086 54.3153C90.2098 54.6101 90.392 54.8767 90.6217 55.099C90.8443 55.3345 91.1137 55.5208 91.4126 55.646C91.7114 55.7712 92.0331 55.8325 92.3572 55.8262C92.7549 55.8273 93.1498 55.7576 93.5233 55.6204C93.9195 55.4619 94.2895 55.2445 94.6209 54.9756L94.8403 54.7904V55.8467H94.7718C94.4308 56.1413 94.0408 56.3735 93.6193 56.5328C92.9913 56.7559 92.3149 56.8061 91.6608 56.6782C91.0067 56.5503 90.3991 56.2489 89.9014 55.8056C89.5843 55.4866 89.3359 55.1058 89.1719 54.687C89.0079 54.268 88.9317 53.8199 88.9478 53.3704C88.9115 52.4785 89.2045 51.6045 89.7711 50.9146C90.0289 50.6048 90.3535 50.3576 90.7207 50.1913C91.0878 50.0249 91.4878 49.9439 91.8907 49.9543C92.2993 49.9313 92.708 50.0002 93.0866 50.1557C93.4652 50.3112 93.8043 50.5493 94.0789 50.8529C94.5929 51.5169 94.8596 52.3391 94.8335 53.1783V53.3155L89.9014 53.3842Z" fill="black"/>
<path fillRule="evenodd" clipRule="evenodd" d="M97.8924 50.9559C98.0222 50.7145 98.1989 50.5016 98.4121 50.3294C98.6252 50.1573 98.8707 50.0294 99.1339 49.9534C99.3972 49.8773 99.673 49.8546 99.9451 49.8867C100.217 49.9186 100.48 50.0046 100.719 50.1396C100.733 50.1403 100.746 50.1454 100.757 50.1539C100.768 50.1625 100.776 50.1742 100.78 50.1876V51.2577C100.719 51.2234 100.78 51.2577 100.698 51.2577C99.1478 50.3934 98.2012 51.6349 97.8924 52.4787V56.7729H96.939V49.9132H97.8924V50.9559Z" fill="black"/>
<path fillRule="evenodd" clipRule="evenodd" d="M107.749 48.3353H104.725V47.4709H111.79V48.3353H108.765V56.6835H107.749V48.3353Z" fill="black"/>
<path fillRule="evenodd" clipRule="evenodd" d="M124.221 48.4795V51.4909H128.048V52.3826H124.221V55.7507H128.762V56.6493H123.212V47.5808H128.584V48.4795H124.221Z" fill="black"/>
<path fillRule="evenodd" clipRule="evenodd" d="M131.505 50.8256C131.735 50.5413 132.023 50.3118 132.352 50.1539C132.681 49.996 133.041 49.9138 133.406 49.9133C133.739 49.9008 134.071 49.9593 134.379 50.0845C134.687 50.2099 134.966 50.3993 135.196 50.6404C135.347 50.803 135.478 50.9825 135.587 51.1754L135.724 50.9491C135.959 50.6316 136.264 50.3725 136.614 50.1917C136.966 50.0109 137.353 49.9133 137.748 49.9064C138.081 49.8931 138.413 49.951 138.721 50.0764C139.031 50.2018 139.309 50.3917 139.538 50.6336C139.772 50.8816 139.953 51.174 140.07 51.4933C140.188 51.8126 140.24 52.1525 140.224 52.4925V56.5535H139.23V52.5336C139.252 52.0836 139.097 51.6427 138.797 51.3057C138.655 51.1458 138.477 51.0206 138.278 50.9399C138.08 50.859 137.866 50.8246 137.651 50.8393C137.37 50.8528 137.094 50.9287 136.846 51.0615C136.596 51.1943 136.38 51.3809 136.212 51.6076C136.084 51.7349 135.973 51.8779 135.882 52.0329V56.5535H134.888V52.5336C134.9 52.3106 134.868 52.0873 134.794 51.8766C134.72 51.6659 134.605 51.4718 134.455 51.3057C134.311 51.1479 134.133 51.024 133.935 50.9433C133.737 50.8627 133.523 50.8271 133.31 50.8393C133.026 50.8536 132.749 50.9298 132.497 51.0625C132.246 51.1952 132.027 51.3813 131.856 51.6076C131.735 51.742 131.623 51.8841 131.52 52.0329V56.5535H130.545V50.0367H131.505V50.8256Z" fill="black"/>
<path d="M142.35 50.0504H143.345V50.8736C143.554 50.5236 143.883 50.2624 144.271 50.1395C144.859 49.9038 145.503 49.843 146.125 49.9647C146.747 50.0864 147.32 50.3854 147.777 50.8256C148.351 51.5197 148.669 52.3911 148.675 53.2924C148.681 54.1936 148.376 55.0694 147.811 55.7714C146.617 57.0747 144.868 56.7797 143.441 56.0252L143.345 55.9634V59.1395H142.35V50.0504ZM146.356 51.2371C145.533 50.702 144.333 50.8256 143.366 52.122V54.7768C144.374 55.8606 145.677 55.9634 146.541 55.3324C146.845 55.0748 147.085 54.7514 147.243 54.3868C147.402 54.0223 147.476 53.6263 147.457 53.229C147.44 52.8319 147.331 52.444 147.141 52.0952C146.949 51.7464 146.681 51.4459 146.356 51.2166" fill="black"/>
<path d="M80.3316 42.7859H61.5361V43.8698H80.3316V42.7859Z" fill="black"/>
<path d="M180.977 42.7859H95.4639V43.8698H180.977V42.7859Z" fill="black"/>
<path fillRule="evenodd" clipRule="evenodd" d="M114.493 55.6892C114.8 55.6995 115.106 55.6436 115.39 55.5253C115.675 55.4069 115.929 55.2289 116.139 55.0032C116.586 54.5371 116.833 53.9139 116.825 53.2678C116.83 52.6181 116.584 51.9916 116.139 51.5185C115.934 51.288 115.679 51.1067 115.394 50.988C115.109 50.8692 114.801 50.8161 114.493 50.8326C114.183 50.8208 113.874 50.8759 113.588 50.9943C113.301 51.1127 113.043 51.2915 112.833 51.5185C112.382 51.988 112.135 52.6169 112.146 53.2678C112.14 53.5882 112.197 53.9067 112.315 54.2046C112.432 54.5027 112.609 54.7742 112.833 55.0032C113.047 55.2268 113.304 55.4033 113.59 55.5214C113.876 55.6395 114.183 55.6966 114.493 55.6892ZM114.493 56.6289C114.052 56.6434 113.612 56.566 113.203 56.402C112.793 56.2379 112.422 55.9905 112.112 55.6755C111.801 55.353 111.557 54.9713 111.396 54.553C111.235 54.1348 111.158 53.6885 111.173 53.2404C111.152 52.7873 111.224 52.335 111.387 51.9113C111.548 51.4877 111.795 51.1018 112.112 50.7777C112.42 50.4589 112.79 50.2081 113.2 50.0414C113.61 49.8748 114.051 49.7962 114.493 49.8105C114.934 49.7942 115.372 49.872 115.78 50.0388C116.188 50.2056 116.556 50.4574 116.86 50.7777C117.174 51.0984 117.421 51.4794 117.585 51.8979C117.749 52.3164 117.826 52.7637 117.812 53.2129C117.824 53.6617 117.744 54.1082 117.581 54.5263C117.418 54.9444 117.172 55.3258 116.86 55.648C116.551 55.9613 116.182 56.2077 115.775 56.3717C115.368 56.5358 114.931 56.614 114.493 56.6015" fill="black"/>
<path fillRule="evenodd" clipRule="evenodd" d="M153.216 55.6893C153.523 55.6962 153.828 55.6386 154.112 55.5206C154.395 55.4024 154.651 55.2262 154.862 55.0034C155.311 54.5381 155.558 53.9142 155.548 53.2679C155.555 52.618 155.309 51.991 154.862 51.5187C154.65 51.2934 154.395 51.1139 154.112 50.991C153.828 50.8683 153.522 50.805 153.212 50.805C152.904 50.805 152.598 50.8683 152.314 50.991C152.03 51.1139 151.774 51.2934 151.563 51.5187C151.338 51.7498 151.161 52.0236 151.044 52.3241C150.925 52.6244 150.869 52.9454 150.877 53.2679C150.868 53.5885 150.923 53.9078 151.042 54.2061C151.16 54.5044 151.337 54.7757 151.563 55.0034C151.774 55.2262 152.03 55.4024 152.313 55.5206C152.597 55.6386 152.902 55.6962 153.209 55.6893M153.209 56.6291C152.767 56.6465 152.327 56.5705 151.917 56.4063C151.507 56.242 151.136 55.993 150.829 55.6757C150.515 55.3543 150.271 54.9729 150.109 54.5542C149.948 54.1357 149.873 53.6888 149.889 53.2404C149.868 52.7863 149.942 52.3327 150.106 51.9086C150.271 51.4847 150.521 51.0996 150.842 50.7778C151.147 50.4569 151.518 50.2047 151.929 50.0379C152.339 49.8712 152.781 49.7937 153.222 49.8106C153.665 49.7968 154.105 49.8756 154.515 50.0422C154.926 50.2088 155.296 50.4594 155.603 50.7778C155.91 51.1026 156.151 51.4849 156.31 51.9029C156.468 52.3208 156.543 52.7661 156.529 53.213C156.552 54.115 156.221 54.9898 155.603 55.6482C155.293 55.9628 154.922 56.21 154.512 56.374C154.103 56.5382 153.663 56.6157 153.222 56.6017" fill="black"/>
<path fillRule="evenodd" clipRule="evenodd" d="M160.474 55.1744L162.333 49.9199H162.957L164.816 55.1608L166.791 50.0297H167.738L165.09 56.8414H164.487L162.621 51.7378L160.763 56.8414H160.152L157.503 50.0297H158.506L160.474 55.1744Z" fill="black"/>
<path fillRule="evenodd" clipRule="evenodd" d="M173.349 52.5744C173.292 52.2143 173.14 51.8758 172.91 51.5934C172.737 51.3805 172.514 51.2116 172.263 51.1008C172.011 50.9899 171.736 50.9402 171.462 50.9555C171.197 50.9596 170.936 51.0234 170.698 51.1421C170.461 51.2608 170.253 51.4316 170.091 51.6415C169.872 51.9202 169.711 52.2396 169.617 52.5812L173.349 52.5744ZM169.479 53.3838C169.477 53.7037 169.54 54.0206 169.663 54.3155C169.788 54.6104 169.97 54.8769 170.2 55.0988C170.421 55.3325 170.688 55.5178 170.985 55.6429C171.281 55.7681 171.601 55.8303 171.923 55.8259C172.32 55.8254 172.714 55.7558 173.088 55.6201C173.484 55.4693 173.851 55.2512 174.172 54.9753L174.412 54.79V55.8465H174.365C174.015 56.1406 173.618 56.3726 173.191 56.5324C172.561 56.7568 171.882 56.8077 171.226 56.6797C170.569 56.5518 169.959 56.2498 169.459 55.8053C169.145 55.4841 168.9 55.1028 168.737 54.6843C168.575 54.2659 168.498 53.8189 168.512 53.3701C168.483 52.4803 168.772 51.6091 169.329 50.9144C169.602 50.6167 169.933 50.3782 170.301 50.2133C170.67 50.0484 171.067 49.9607 171.471 49.9556C171.875 49.9504 172.275 50.0279 172.647 50.1834C173.02 50.3388 173.357 50.5689 173.637 50.8595C174.156 51.5214 174.428 52.3439 174.406 53.1849V53.3222L169.479 53.3838Z" fill="black"/>
<path fillRule="evenodd" clipRule="evenodd" d="M177.465 50.8871C177.597 50.6502 177.774 50.4416 177.986 50.2734C178.199 50.105 178.442 49.9804 178.703 49.9065C178.964 49.8326 179.236 49.8108 179.505 49.8425C179.775 49.8743 180.035 49.9588 180.271 50.0914C180.271 50.0914 180.319 50.0914 180.346 50.1257V51.2369C180.264 51.1477 180.346 51.2369 180.264 51.1889C178.707 50.3177 177.767 51.573 177.458 52.3961V56.6903H176.505V49.8582H177.465V50.8871Z" fill="black"/>
</g>
<defs>
<clipPath id="clip0_5010_6177">
<rect width="182.944" height="69.8889" fill="white" transform="translate(0.0556641 0.0556641)"/>
</clipPath>
</defs>
</svg>
