<svg width="182" height="80" viewBox="0 0 182 80" fill="none" xmlns="http://www.w3.org/2000/svg">
<g clip-path="url(#clip0_5281_15208)">
<path fill-rule="evenodd" clip-rule="evenodd" d="M51.4785 29.6392H65.3843V32.2043H51.4785V29.6392Z" fill="#FAA61A"/>
<path fill-rule="evenodd" clip-rule="evenodd" d="M51.4785 34.2969H65.3843L64.7093 36.7945H52.2211L51.4785 34.2969Z" fill="#0DB14B"/>
<path fill-rule="evenodd" clip-rule="evenodd" d="M20.6973 39.4264C20.2923 39.5614 20.0223 39.5614 19.8197 39.5614C19.3473 39.5614 19.0772 39.5614 18.5372 39.3589V36.1863H19.8197H21.0348H26.0976V38.6164C25.625 38.0763 25.085 37.5363 24.815 37.3338C24.5449 37.1313 23.9375 36.9963 23.4649 36.9963C21.8448 37.0637 20.6973 38.1438 20.6973 39.4264ZM98.4613 36.2537V37.6713H96.0986C94.411 37.6713 93.6685 38.6164 93.6685 39.5614C93.6685 40.709 94.276 41.7215 96.0311 44.2192L96.7061 43.7466C95.8286 42.6666 95.221 41.5865 95.221 40.7765C95.221 39.8314 95.5586 39.1564 96.7061 39.1564H98.5287V43.2066L100.149 44.3542V36.2537H101.904L101.026 34.7686H93.2635H91.9809H87.2557H85.9731H83.543H82.2604H79.3578H78.5477H78.4803L79.3578 36.2537H79.4253H80.2354H80.6404V39.6289H77.8727L77.9403 37.6713C77.9403 36.5913 77.3327 34.7012 75.4426 34.7012C74.2275 34.7012 73.5525 35.5787 73.5525 36.5237C73.5525 37.5363 74.3625 38.5488 76.3876 39.0214L76.3201 39.6289H75.4426C75.105 39.6289 74.9026 39.8989 74.9026 40.1689C74.9026 40.7765 76.6576 42.4641 77.1977 42.4641C77.6027 42.4641 77.6701 42.1265 77.7377 41.1815H80.6404V43.2741L82.2604 44.4216V36.3213H83.1379H84.4205V43.2741L85.9731 44.4216V36.3213H86.8507H88.1333H89.5508V38.8188C89.5508 39.0214 89.4833 39.1564 89.3483 39.1564C89.0108 39.1564 88.6057 38.6838 88.1333 38.6838C87.8632 38.6838 87.5932 39.0888 87.5932 39.2914C87.5932 39.5614 87.9307 40.034 88.5383 40.844L91.5084 44.5566L92.1159 43.9492C90.9008 42.6666 90.2258 41.9241 89.8208 41.3165C90.4284 40.844 90.9684 40.2364 90.9684 39.5614V36.3887H92.7235H94.006H98.4613V36.2537ZM76.5901 36.7937L76.5226 38.2114C75.51 38.0088 75.0376 37.5363 75.0376 36.7937C75.0376 36.2537 75.51 35.6462 75.9151 35.6462C76.1851 35.7137 76.5901 35.9837 76.5901 36.7937ZM41.8934 37.2663V36.2537H44.391L43.5135 34.7686H34.5355H32.9829H28.5952H27.3802H20.2247H19.0097H13.6094L14.4869 36.2537H16.9846V38.8864C16.9846 39.0214 16.917 39.0888 16.917 39.0888C16.7146 39.0888 16.3096 38.5488 15.972 38.5488C15.702 38.5488 15.297 38.8188 15.297 39.1564C15.297 39.6289 15.7695 40.439 16.0396 40.844L18.8747 44.7592L19.5497 44.0842C18.6722 43.0716 17.9972 42.3965 17.2546 41.384C17.5922 41.114 18.0646 40.709 18.4697 40.1014C18.9422 40.5065 19.4823 40.9789 20.0223 40.9789C20.2923 40.9789 20.6973 40.9115 21.1023 40.844C21.7098 41.7891 22.7224 42.5315 23.8025 42.5315C24.5449 42.5315 25.2875 42.1941 26.165 41.5191V43.2066L27.7176 44.3542V36.2537H28.1902H29.4053H33.7929H35.3455H40.4083V37.1313C39.3283 37.2663 38.7207 38.1438 38.7207 39.0214C38.7207 39.9664 39.4633 40.844 40.8808 41.6541C40.2058 42.5316 38.7207 43.1391 37.7082 43.1391C36.8982 43.1391 36.628 42.9366 36.628 42.4641C36.628 41.9241 37.1681 41.4515 38.6531 41.4515L37.9782 39.8314C37.5056 39.764 36.6956 39.899 36.493 40.1014C36.4256 40.034 36.2906 39.9664 36.223 39.8989L35.953 39.494C35.953 39.4264 35.953 39.3589 35.953 39.3589C35.953 38.8864 36.358 38.4814 36.9656 38.4814C37.1681 38.4814 37.7082 38.5488 37.9782 38.6164L37.2356 37.0637C37.1006 36.9963 36.7631 36.9963 36.493 36.9963C35.4805 36.9963 34.873 37.5363 34.6705 38.2114L34.4005 37.6713H29.0002L29.8777 39.1564H30.8903C30.6878 39.4939 30.6203 39.7639 30.6203 40.2364C30.6203 41.3839 32.0378 42.8691 33.3879 42.8691C33.8605 42.8691 34.5355 42.5991 35.413 41.9915C35.683 43.0716 37.2356 44.3542 38.6531 44.3542C40.6108 44.3542 43.3109 42.3965 43.3109 39.6964C43.3109 38.9538 42.5684 37.7388 41.8934 37.2663ZM34.8055 39.1564C34.9405 39.4264 35.143 39.7639 35.3455 39.9664C34.2655 41.0465 33.2529 41.5865 32.4429 41.5865C32.0378 41.5865 31.8354 41.4515 31.8354 41.0465C31.8354 40.439 32.3754 39.5614 32.9154 39.3589C33.2529 39.1564 33.7929 39.1564 34.2655 39.1564H34.8055ZM41.2858 41.0465C40.6783 40.5065 40.3408 40.0339 40.3408 39.4264C40.3408 38.7514 40.8133 38.0763 41.3534 38.0763C41.6908 38.0763 41.8934 38.3464 41.8934 39.0888C41.8934 39.6289 41.5558 40.709 41.2858 41.0465ZM22.9924 41.3165C22.5199 41.3165 22.1148 40.979 22.1148 40.3714C22.1148 39.4264 22.7899 38.6164 23.7349 38.6164C24.5449 38.6164 25.49 38.9538 26.165 39.6289V39.8314C25.2875 40.439 23.7349 41.3165 22.9924 41.3165Z" fill="black"/>
<path fill-rule="evenodd" clip-rule="evenodd" d="M10.8416 73.9886V70.5459H11.5841H12.5291H16.0393V72.6385C15.7018 72.031 15.4993 71.761 15.2292 71.5584C15.0268 71.4234 14.4868 71.2884 14.2168 71.2884C13.0017 71.2884 12.2591 72.166 12.2591 73.1111C12.2591 74.1236 13.6092 75.2712 14.6892 75.2712C15.0942 75.2712 15.7693 74.9336 16.1068 74.6636V75.8787L17.3219 76.7562V74.0561C17.5919 73.7185 18.672 73.0435 19.077 73.0435C19.2794 73.0435 19.482 73.2461 19.482 73.4485C19.482 73.7861 19.0094 74.8661 18.6044 75.6087L19.752 76.4188C20.157 75.8787 20.427 74.7987 20.427 74.2587C20.427 72.9761 19.5494 71.9635 18.672 71.9635C18.3344 71.9635 17.6594 72.2335 17.3893 72.5035V70.4784H21.3721L20.697 69.3309H11.9216H10.9766H4.96875L5.64378 70.4784H6.58883V74.1911C6.58883 74.4611 6.65633 74.6637 7.06135 75.0012C7.33136 75.2037 10.369 76.9588 10.7065 77.2288C10.909 77.3638 11.0441 77.5663 11.0441 77.7688C11.0441 77.9038 10.9091 78.1738 10.8416 78.3089L11.9216 79.1189C12.1241 78.9163 12.4617 78.3763 12.4617 78.1063C12.4617 77.7688 12.1917 77.4313 11.8541 77.2288L8.88395 75.4062C7.87139 74.7987 7.73638 74.4611 7.73638 74.1236V70.5459H9.55898V73.1111C9.55898 73.5835 9.42397 73.7861 9.08645 73.7861C8.88394 73.7861 8.68144 73.7185 8.54643 73.7185L9.08645 74.5961C9.49147 74.7311 9.89649 74.7987 10.1665 74.7987C10.639 74.8661 10.8416 74.6636 10.8416 73.9886ZM108.722 70.5459H109.667V72.436C109.667 72.571 109.599 72.6385 109.532 72.6385C109.329 72.6385 108.992 72.301 108.654 72.301C108.452 72.301 108.249 72.571 108.249 72.706C108.249 72.9085 108.452 73.3135 108.992 73.8535L111.219 76.6212L111.692 76.1488C110.814 75.2036 110.274 74.5961 109.937 74.1911C110.409 73.8536 110.814 73.3811 110.814 72.8411V70.4784H113.042L112.367 69.3309H108.114H107.034H106.629C105.886 68.1158 105.414 67.1708 104.806 66.6308C104.334 66.2258 103.929 66.1582 103.726 66.1582C103.389 66.1582 102.984 66.1582 102.984 66.4282C102.984 66.5632 103.051 66.6982 103.524 67.6433C103.726 67.5758 104.064 67.5083 104.266 67.5083C104.536 67.5083 104.739 67.6433 104.941 67.8458C105.279 68.1833 105.616 68.5883 106.089 69.3309H105.211H104.266H101.769L102.376 70.4784H103.254V72.166C103.254 72.5035 102.579 72.9085 101.971 72.9085C101.701 72.9085 101.229 72.706 100.959 72.436C101.431 72.0985 101.566 71.8285 101.566 71.491C101.566 70.5459 100.216 69.2633 99.0685 69.2633C98.731 69.2633 97.786 69.5334 97.3134 69.7359L97.921 70.951C98.7985 70.6134 99.6761 70.3434 99.9461 70.4109C100.284 70.4109 100.486 70.5459 100.486 70.8834C100.486 71.491 99.8785 72.031 98.596 72.2335C98.326 72.301 98.2585 72.3685 98.2585 72.436C98.2585 72.5035 98.6635 73.1111 99.0011 73.4485C99.5411 73.3135 100.149 73.1111 100.486 72.9085C100.621 73.1111 100.756 73.5161 100.756 73.8535C100.756 74.4611 100.149 74.9337 99.3385 74.9337C98.596 74.9337 97.8535 74.2586 97.246 73.0435L96.7734 73.3135C97.516 74.8661 98.731 75.9462 99.8111 75.9462C100.959 75.9462 101.769 75.2037 101.769 74.2587C101.769 74.0561 101.701 73.7185 101.634 73.5161V73.4485C101.904 73.6511 102.646 73.8535 102.781 73.8535C102.916 73.8535 103.119 73.8535 103.254 73.7861V75.7436L104.469 76.5538V70.4784H104.874H105.819H105.886V75.6762L107.101 76.4862V70.4109H107.642H108.722V70.5459ZM94.2758 70.5459L93.6008 69.3983H92.3182C92.1157 67.3058 91.1031 66.3608 89.8881 66.3608C88.943 66.3608 88.2005 67.0358 88.2005 67.7783C88.2005 68.1158 88.403 68.5209 88.673 68.7909L89.3481 68.7233C89.3481 68.5209 89.3481 68.4533 89.3481 68.3183C89.3481 67.8458 89.7531 67.4408 90.2931 67.4408C91.0357 67.4408 91.7107 68.2508 91.7782 69.4659H90.8331H89.8881H81.1801L81.8552 70.6134H86.3104V72.706C85.9729 72.0985 85.7703 71.8285 85.5003 71.626C85.2979 71.491 84.8253 71.356 84.4878 71.356C83.2728 71.356 82.5302 72.2335 82.5302 73.1785C82.5302 74.1911 83.8803 75.3387 84.9603 75.3387C85.3653 75.3387 86.0404 75.0011 86.3779 74.7311V75.9462L87.593 76.8238V74.1236C87.863 73.7861 88.943 73.1111 89.3481 73.1111C89.5505 73.1111 89.7531 73.3135 89.7531 73.5161C89.7531 73.8535 89.2805 74.9336 88.8755 75.6762L90.0231 76.4862C90.4281 75.9462 90.6981 74.8661 90.6981 74.3261C90.6981 73.0435 89.8205 72.031 88.943 72.031C88.6055 72.031 87.9304 72.301 87.6604 72.571V70.5459H90.6981H91.6432V75.7436L92.8582 76.5538V70.4784H94.2758V70.5459ZM86.3104 73.3811C85.9729 73.6511 84.5553 74.5286 84.1503 74.5286C83.8803 74.5286 83.6102 74.2587 83.6102 73.7861C83.6102 73.1785 84.2178 72.5035 84.8253 72.5035C85.2979 72.5035 85.9053 72.7735 86.3104 73.3811ZM77.94 76.6212V70.5459H79.5601L78.885 69.3983H76.0499H75.1049H70.1771H69.232H63.1568H61.9417H58.499H57.5539H52.0861H51.1411H46.9559L47.6309 70.5459H49.521V72.5035C49.521 72.571 49.521 72.6385 49.4535 72.6385C49.3185 72.6385 48.981 72.2335 48.711 72.2335C48.5084 72.2335 48.171 72.436 48.171 72.706C48.171 73.0435 48.5084 73.6511 48.7784 73.9886L51.0061 76.8912L51.5461 76.4188C50.8711 75.6762 50.3311 75.1362 49.791 74.3937C50.0611 74.1911 50.4661 73.8535 50.7361 73.4485C51.0735 73.7861 51.4787 74.1236 51.9511 74.1236C52.1537 74.1236 52.4912 74.0561 52.7612 73.9886C53.2337 74.6636 54.0438 75.2712 54.8538 75.2712C55.3938 75.2712 56.0013 75.0012 56.6764 74.4611V75.6762L57.8914 76.4862V70.4109H58.2964H59.2415H62.6842H63.8992H67.8144V71.0184C66.9369 71.1534 66.5319 71.761 66.5319 72.436C66.5319 73.1111 67.0719 73.7861 68.2194 74.3937C67.6794 75.0687 66.5319 75.5412 65.7219 75.5412C65.1143 75.5412 64.9118 75.3386 64.9118 75.0686C64.9118 74.6636 65.3169 74.2587 66.4644 74.2587L65.9243 73.0435C65.5869 72.9761 64.9793 73.1111 64.7768 73.2461C64.7093 73.1785 64.6418 73.1785 64.5743 73.1111L64.5068 72.571C64.4393 72.6385 64.3718 72.706 64.3043 72.7735C64.3043 72.7735 64.3043 72.706 64.3043 72.6385C64.3043 72.2335 64.6418 71.9635 65.1143 71.9635C65.2493 71.9635 65.7219 71.9635 65.9243 72.031L65.3843 70.951C65.2493 70.951 64.9793 70.8834 64.8443 70.8834C64.1018 70.8834 63.5618 71.2884 63.4268 71.761L63.2242 71.356H59.039L59.714 72.5035H60.5241C60.3891 72.706 60.3215 72.9761 60.3215 73.3135C60.3215 74.1911 61.4691 75.2712 62.4817 75.2712C62.8192 75.2712 63.4268 75.0686 64.0342 74.5961C64.2368 75.4062 65.4519 76.3512 66.5319 76.3512C68.0844 76.3512 70.1095 74.8661 70.1095 72.9085C70.1095 72.3685 69.5695 71.491 69.0295 71.086V70.3434H70.0421H70.9871H74.2273V71.4234H72.4722C71.1897 71.4234 70.6495 72.166 70.6495 72.8411C70.6495 73.6511 71.1221 74.4611 72.4047 76.3512L72.8772 75.9462C72.2022 75.1362 71.7297 74.3261 71.7297 73.7185C71.7297 73.0435 71.9997 72.5035 72.8772 72.5035H74.2273V75.5412L75.4423 76.3512V70.2759H75.8473H76.7924H76.8599V75.4737L77.94 76.6212ZM63.4268 72.7735C63.5618 72.9761 63.6968 73.2461 63.8992 73.3811C63.0217 74.1911 62.2792 74.5961 61.6717 74.5961C61.3341 74.5961 61.1991 74.4611 61.1991 74.1911C61.1991 73.7185 61.6041 73.1111 62.0092 72.9085C62.2792 72.7735 62.6842 72.7735 63.0217 72.7735H63.4268ZM68.422 74.1236C67.9494 73.7185 67.6794 73.3811 67.6794 72.9085C67.6794 72.436 68.017 71.896 68.4895 71.896C68.692 71.896 68.8946 72.0985 68.8946 72.6385C68.8946 73.1111 68.6245 73.9211 68.422 74.1236ZM52.7612 70.5459H56.6764V72.3685C56.3389 71.9635 55.8663 71.5584 55.6639 71.4234C55.4613 71.2884 54.9888 71.221 54.5838 71.221C53.3688 71.221 52.4237 72.031 52.4237 72.9085C52.1537 72.9761 51.9511 73.0435 51.7487 73.0435C51.4111 73.0435 51.1411 73.0435 50.7361 72.9085V70.5459H51.7487H52.7612ZM54.2462 74.3937C53.9088 74.3937 53.5712 74.1236 53.5712 73.6511C53.5712 72.9085 54.1112 72.3685 54.7863 72.3685C55.4613 72.3685 56.1363 72.6385 56.6764 73.1111V73.2461C56.0013 73.7185 54.7863 74.3937 54.2462 74.3937ZM40.6105 74.1911H42.7032V75.8112L43.9182 76.6212V70.5459H45.2683L44.5933 69.3983H38.3154H37.3704H32.5777H31.5651H22.9247L23.5997 70.5459H28.0549V72.6385H27.9874C27.6499 72.031 27.4474 71.761 27.1773 71.5584C26.9749 71.4234 26.5023 71.2884 26.1649 71.2884C24.9498 71.2884 24.2072 72.166 24.2072 73.1111C24.2072 74.1236 25.4898 75.2712 26.6373 75.2712C27.0423 75.2712 27.7174 74.9336 28.0549 74.6636V75.8787L29.27 76.7562V74.0561C29.54 73.7185 30.6201 73.0435 31.0251 73.0435C31.2275 73.0435 31.4301 73.2461 31.4301 73.4485C31.4301 73.7861 30.9575 74.8661 30.5525 75.6087L31.7001 76.4188C32.1051 75.8787 32.3751 74.7987 32.3751 74.2587C32.3751 72.9761 31.4975 71.9635 30.6201 71.9635C30.2825 71.9635 29.6075 72.2335 29.3374 72.5035V70.4784H32.3077H33.3202H36.4253V71.5584H34.6702C33.5902 71.5584 33.0502 72.031 33.0502 72.9761C33.0502 74.8661 34.5352 76.0812 36.0879 76.0812C36.5603 76.0812 36.8979 75.9462 36.8979 75.9462L37.8429 77.8363L38.4504 77.4988L37.4379 75.6762C37.7079 75.4736 37.9104 75.2712 37.9104 74.9337C37.9104 74.3937 36.7629 73.6511 36.4253 73.6511C36.1553 73.6511 36.0203 73.8536 36.0203 73.9886C36.0203 74.3936 36.2229 74.4611 36.2229 74.6636C36.2229 74.7986 35.8178 75.0686 35.3453 75.0686C34.8728 75.0686 34.1302 74.6636 34.1302 73.7185C34.1302 72.9761 34.6028 72.5035 35.2103 72.5035H37.5054C37.6404 72.5035 37.7079 72.3685 37.7079 72.166V70.2759H38.248H39.193H39.598V72.7735H39.193C38.9904 72.7735 38.8554 72.9085 38.8554 73.1111C38.8554 73.5835 40.0705 74.8662 40.4755 74.8662C40.6781 74.8662 40.8131 74.7311 40.8131 74.5961V74.1911H40.6105ZM42.7032 70.5459V73.0435H40.6105V70.5459H42.7032ZM28.0549 73.3811C27.7174 73.6511 26.2999 74.5286 25.8948 74.5286C25.6248 74.5286 25.3548 74.2587 25.3548 73.7861C25.3548 73.1785 25.9623 72.5035 26.5699 72.5035C27.0423 72.5035 27.6499 72.7735 28.0549 73.3811ZM16.0393 73.3811C15.7018 73.6511 14.2842 74.5286 13.8792 74.5286C13.6092 74.5286 13.3392 74.2587 13.3392 73.7861C13.3392 73.1785 13.9467 72.5035 14.5542 72.5035C15.0268 72.5035 15.6343 72.7735 16.0393 73.3811Z" fill="black"/>
<path fill-rule="evenodd" clip-rule="evenodd" d="M28.528 12.8306C42.5013 12.8306 53.7743 24.1712 53.7743 38.0769C53.7743 52.0501 42.5013 63.3232 28.528 63.3232C14.5548 63.3232 3.28174 52.0501 3.28174 38.0769C3.28174 24.1712 14.5548 12.8306 28.528 12.8306ZM28.528 15.0582C41.2187 15.0582 51.5467 25.3188 51.5467 38.0769C51.5467 50.7676 41.2862 61.0956 28.528 61.0956C15.8374 61.0956 5.50935 50.7676 5.50935 38.0769C5.50935 25.3862 15.8374 15.0582 28.528 15.0582Z" fill="black"/>
<path fill-rule="evenodd" clip-rule="evenodd" d="M88.2671 12.8306C102.24 12.8306 113.514 24.1712 113.514 38.0769C113.514 52.0501 102.173 63.3232 88.2671 63.3232C74.2939 63.3232 63.0208 51.9826 63.0208 38.0769C62.9534 24.1712 74.2939 12.8306 88.2671 12.8306ZM88.2671 15.0582C100.958 15.0582 111.286 25.3188 111.286 38.0769C111.286 50.7676 100.958 61.0956 88.2671 61.0956C75.5765 61.0956 65.2485 50.7676 65.2485 38.0769C65.2485 25.3862 75.5089 15.0582 88.2671 15.0582Z" fill="black"/>
<path fill-rule="evenodd" clip-rule="evenodd" d="M2.26874 36.7939C0.783664 37.469 -0.161384 35.3763 1.4587 34.6338L10.2341 30.6511L65.587 4.93229L70.7172 2.70468C76.86 0.40956 82.9353 -1.27802 88.3357 1.28711C96.7061 5.53982 95.4234 18.028 88.4031 23.9008C87.1206 24.9808 85.703 23.3608 86.7831 22.2132C97.5161 10.8726 90.9008 -2.89811 73.0799 4.25725C71.9323 4.72978 70.9872 5.0673 69.9072 5.53982C49.5887 14.7203 29.4051 24.1708 9.15409 33.6212L2.26874 36.7939Z" fill="black"/>
<path fill-rule="evenodd" clip-rule="evenodd" d="M110.207 36.8611C108.789 37.5361 107.776 35.4435 109.397 34.701L153.004 14.5174L158.134 12.2899C164.277 9.99474 170.15 8.03714 175.55 10.6023C183.921 14.855 182.637 27.3431 175.617 33.2159C174.335 34.296 172.917 32.6759 173.997 31.5283C184.663 19.9852 178.115 6.21454 160.496 13.91C159.416 14.3824 158.404 14.72 157.324 15.1925C141.528 22.3479 125.8 29.3682 110.207 36.8611Z" fill="black"/>
</g>
<defs>
<clipPath id="clip0_5281_15208">
<rect width="181.111" height="80" fill="white" transform="translate(0.61084)"/>
</clipPath>
</defs>
</svg>
